# xmcd
#
# Track frame offsets: 
#        150
#        19752
#        37057
#        56888
#        74352
#        91553
#        109493
#        127818
#        149341
#        165453
#        183923
#        202571
#        216410
#        237120
#        260016
#        278403
#        289940
#        302764
#        321087
#        340105
#
# Disc length: 4798 seconds
#
# Revision: 0
# Processed by: cddbd v1.5.2PL0 Copyright (c) Steve Scherf et al.
# Submitted via: ExactAudioCopyFreeDBPlugin 1.0
#
DISCID=2212bc14
DTITLE=Various Artist - Rock Christmas, the very best of
DYEAR=2011
DGENRE=Pop
TTITLE0=Queen - Thank God It's Christmas
TTITLE1=Band Aid - Do They Know It's Christmas?
TTITLE2=Wham! - Last Christmas
TTITLE3=Melanie Thornton - Wonderful Dream (Holidays Are Coming)
TTITLE4=Sarah Connor - The Best Side Of Life
TTITLE5=Chris Rea - Driving Home For Christmas
TTITLE6=Samantha Mumba - All I Want For Christmas
TTITLE7=Ronan Keating feat. Maire Brennan - Fairy Tale Of New York
TTITLE8=Orange Blue feat. Vail - Why Do I Fell So Sad On Christmas?
TTITLE9=Kate Winslet - What If
TTITLE10=98º - This Gift (Christmas Version)
TTITLE11=Justin Bieber - Mistletoe
TTITLE12=S Club 7 - Perfect Christmas
TTITLE13=Luther Vandross - Have Yourself A Merry Little Christmas
TTITLE14=All-4-One - Rudolph, The Red-Nosed Reindeer - Frosty the Snow
TTITLE14=man
TTITLE15=Boyz II Men - Silent Night
TTITLE16=David Pomeranz - Christmas Is The Time Of The Year
TTITLE17=Child Liners - The Gift Of Christmas
TTITLE18='N Sync - Merry Christmas, Happy Holidays
TTITLE19=ABBA - Happy New Year
EXTD=
EXTT0=
EXTT1=
EXTT2=
EXTT3=
EXTT4=
EXTT5=
EXTT6=
EXTT7=
EXTT8=
EXTT9=
EXTT10=
EXTT11=
EXTT12=
EXTT13=
EXTT14=
EXTT15=
EXTT16=
EXTT17=
EXTT18=
EXTT19=
PLAYORDER=
